<?xml version="1.0" standalone="no"?>
<!DOCTYPE svg PUBLIC "-//W3C//DTD SVG 20010904//EN"
 "http://www.w3.org/TR/2001/REC-SVG-20010904/DTD/svg10.dtd">
<svg version="1.0" xmlns="http://www.w3.org/2000/svg"
 width="1300.000000pt" height="400.000000pt" viewBox="0 0 1300.000000 400.000000"
 preserveAspectRatio="xMidYMid meet">

<g transform="translate(0.000000,400.000000) scale(0.100000,-0.100000)"
fill="#000000" stroke="none">
<path d="M808 3685 c-59 -22 -126 -72 -163 -123 -70 -95 -65 16 -63 -1577 l3
-1440 25 -50 c31 -64 101 -134 165 -165 l50 -25 5675 0 5675 0 50 25 c64 31
134 101 165 165 l25 50 0 1455 0 1455 -25 50 c-31 64 -101 134 -165 165 l-50
25 -5665 2 c-4785 1 -5671 -1 -5702 -12z m2200 -538 c-14 -224 -186 -415 -399
-443 l-52 -7 5 81 c11 199 169 380 380 436 29 8 57 15 62 15 5 1 7 -36 4 -82z
m4122 75 c0 -2 -19 -27 -42 -57 -36 -45 -48 -54 -75 -54 -18 -1 -33 1 -33 4 0
8 40 87 50 100 8 9 100 16 100 7z m-2529 -17 c57 -20 112 -75 140 -139 30 -67
33 -216 6 -291 -22 -64 -67 -119 -120 -148 -38 -19 -60 -22 -209 -25 l-168 -4
0 311 0 311 154 0 c113 0 165 -4 197 -15z m349 -31 l0 -45 -37 3 c-37 3 -38 4
-41 46 l-3 42 40 0 41 0 0 -46z m3240 -264 l0 -310 -40 0 -40 0 0 310 0 310
40 0 40 0 0 -310z m-2858 122 c62 -38 76 -99 26 -104 -27 -2 -36 2 -51 25 -23
38 -62 51 -117 40 -33 -6 -48 -15 -60 -35 -14 -26 -13 -29 5 -47 11 -11 56
-29 100 -41 44 -12 96 -31 116 -41 90 -45 71 -182 -31 -223 -99 -39 -225 -7
-263 67 -24 47 -17 67 23 67 22 0 33 -6 39 -22 31 -83 187 -91 207 -11 12 48
0 56 -150 98 -78 22 -126 67 -126 120 0 87 71 139 182 132 44 -3 77 -11 100
-25z m441 14 c94 -40 142 -180 107 -307 -34 -123 -171 -187 -264 -124 l-36 24
0 -103 c0 -56 -2 -105 -5 -107 -2 -3 -20 -3 -40 -1 l-35 4 0 309 0 309 35 0
c31 0 35 -3 35 -27 l0 -26 23 21 c45 42 120 54 180 28z m475 -2 c93 -38 140
-130 128 -253 -11 -120 -78 -190 -191 -199 -138 -11 -224 75 -225 223 0 95 14
139 60 185 59 59 151 77 228 44z m512 -2 c65 -32 74 -64 79 -264 l3 -178 -41
0 -41 0 0 154 c0 157 -7 199 -38 222 -22 17 -83 18 -117 2 -47 -21 -55 -52
-55 -223 l0 -155 -40 0 -40 0 0 225 0 225 35 0 c33 0 35 -2 35 -32 1 -28 2
-30 11 -15 15 27 87 57 134 57 22 0 56 -8 75 -18z m1165 -12 c50 -31 86 -97
92 -170 l6 -60 -171 0 -170 0 8 -35 c16 -69 68 -115 131 -115 35 0 84 29 103
60 13 24 24 30 50 30 45 0 48 -7 27 -49 -35 -67 -95 -101 -181 -101 -89 0
-157 41 -191 115 -21 46 -25 157 -8 218 13 46 76 113 121 126 51 16 142 6 183
-19z m933 3 c50 -37 56 -63 60 -255 l4 -178 -41 0 -41 0 0 160 c0 206 -10 230
-95 230 -19 0 -46 -5 -60 -12 -47 -21 -55 -52 -55 -223 l0 -155 -40 0 -40 0 0
225 0 225 35 0 c33 0 35 -2 35 -32 1 -28 2 -30 11 -15 32 55 170 73 227 30z
m469 8 c63 -29 67 -44 73 -236 3 -93 9 -178 14 -187 7 -16 3 -18 -33 -18 -35
0 -42 4 -47 24 l-6 24 -55 -29 c-124 -65 -263 -17 -263 93 0 48 20 89 56 113
19 12 208 54 252 55 1 0 2 16 2 35 0 44 -30 72 -85 80 -58 9 -113 -15 -128
-55 -9 -24 -16 -30 -32 -26 -11 3 -28 6 -38 6 -23 0 -15 31 19 77 45 60 185
82 271 44z m-4377 -216 l0 -225 -40 0 -40 0 0 225 0 225 40 0 40 0 0 -225z
m2110 0 l0 -225 -40 0 -40 0 0 225 0 225 40 0 40 0 0 -225z m178 198 c6 -16
33 -93 61 -173 29 -79 53 -145 55 -147 1 -2 31 76 65 172 l63 175 39 0 c21 0
39 -1 39 -3 0 -1 -38 -101 -84 -222 l-83 -220 -38 0 -38 0 -78 205 c-43 113
-81 213 -85 223 -4 14 1 17 34 17 35 0 41 -4 50 -27z m-4143 -358 c103 -22
200 -73 269 -144 l59 -59 -80 -79 c-43 -43 -91 -101 -106 -129 -123 -233 -42
-521 186 -661 69 -43 69 -39 2 -180 -59 -124 -172 -289 -250 -361 -111 -104
-207 -116 -380 -49 -155 60 -232 59 -410 -8 -166 -62 -256 -45 -368 70 -176
180 -318 472 -363 744 -22 138 -15 325 16 426 55 176 161 309 301 377 154 75
265 77 444 7 138 -53 180 -54 290 -10 169 69 263 83 390 56z m5119 -516 c39
-11 66 -25 66 -33 0 -14 -39 -146 -43 -146 -1 0 -27 9 -57 21 -68 26 -190 36
-248 20 -66 -18 -113 -66 -119 -123 -12 -103 19 -135 222 -233 235 -114 290
-180 290 -351 0 -81 -3 -97 -30 -149 -36 -71 -109 -134 -192 -165 -119 -46
-353 -36 -463 18 -40 20 -42 36 -15 128 l16 54 37 -19 c104 -53 277 -69 357
-32 106 48 138 173 67 260 -29 35 -68 58 -243 140 -98 46 -168 103 -207 169
-24 42 -27 56 -27 142 0 78 4 102 22 135 48 88 160 165 271 185 70 13 222 2
296 -21z m-3220 -311 c194 -598 276 -853 276 -858 0 -3 -45 -3 -101 0 l-101 5
-52 165 -53 165 -195 3 -194 2 -50 -167 -50 -168 -97 -5 c-61 -3 -97 -1 -97 5
0 6 84 272 187 593 l187 582 118 0 117 0 105 -322z m3756 97 l0 -105 105 0
105 0 0 -70 0 -70 -105 0 -105 0 0 -235 c0 -315 12 -343 142 -338 l58 2 0 -69
c0 -43 -5 -72 -12 -76 -22 -14 -172 -17 -218 -4 -55 15 -119 77 -139 135 -10
28 -15 119 -18 313 l-5 272 -59 0 -59 0 0 70 0 70 60 0 59 0 3 78 3 77 80 27
c44 14 86 27 93 27 9 1 12 -26 12 -104z m-2721 -116 c97 -41 188 -165 211
-289 44 -235 -45 -458 -218 -542 -71 -34 -210 -38 -280 -8 -29 12 -65 38 -82
56 -16 19 -31 34 -32 34 -2 0 -2 -99 0 -220 l3 -220 -96 0 -95 0 0 473 c0 259
-3 529 -7 600 l-6 127 86 0 87 0 0 -65 c0 -36 2 -65 5 -65 3 0 21 18 41 40 20
22 52 49 72 62 82 51 216 58 311 17z m987 -3 c136 -62 214 -210 214 -406 0
-154 -39 -261 -129 -351 -79 -78 -144 -102 -266 -97 -101 5 -154 26 -199 78
l-26 32 0 -221 0 -221 -95 0 -95 0 0 518 c0 284 -3 554 -7 600 l-6 82 87 0 86
0 0 -42 c0 -24 3 -53 6 -66 6 -22 8 -21 40 17 43 50 86 76 155 96 72 20 166
13 235 -19z m2628 3 c151 -56 241 -190 253 -375 14 -203 -75 -371 -235 -447
-64 -30 -73 -32 -187 -32 -116 0 -123 1 -187 33 -236 116 -300 480 -125 702
106 133 310 184 481 119z m871 -64 l0 -90 -36 3 c-90 8 -162 -35 -200 -120
-23 -51 -24 -65 -27 -311 l-2 -259 -93 0 -92 0 -3 427 -2 426 82 -3 83 -3 5
-80 5 -80 17 37 c39 85 140 150 228 145 l35 -2 0 -90z m643 65 c68 -29 143
-111 173 -188 16 -42 23 -85 27 -164 l4 -108 -287 0 -288 0 6 -45 c14 -95 77
-171 166 -196 60 -18 196 -15 267 6 31 9 58 15 60 13 2 -2 10 -32 18 -66 l14
-62 -66 -20 c-87 -27 -241 -37 -324 -21 -80 16 -168 63 -214 114 -20 22 -50
69 -67 106 -28 58 -32 79 -35 170 -5 118 8 191 45 266 55 108 138 180 243 210
75 21 190 14 258 -15z"/>
<path d="M4340 2910 l0 -243 108 5 c117 5 157 19 190 65 34 49 45 100 40 198
-3 80 -7 98 -31 134 -40 61 -74 74 -199 79 l-108 4 0 -242z"/>
<path d="M5627 2970 c-105 -91 -58 -320 65 -320 36 0 88 37 104 75 18 44 18
156 0 199 -32 77 -110 98 -169 46z"/>
<path d="M6135 2993 c-65 -18 -95 -71 -95 -170 0 -83 21 -131 70 -156 73 -38
158 3 181 88 14 51 6 148 -15 180 -30 46 -92 71 -141 58z"/>
<path d="M7763 2985 c-34 -14 -73 -67 -73 -97 0 -16 13 -18 126 -18 l126 0 -7
28 c-10 43 -34 73 -70 88 -42 17 -61 17 -102 -1z"/>
<path d="M9212 2800 c-91 -19 -122 -39 -122 -81 0 -64 103 -92 171 -46 41 28
59 60 59 110 0 42 7 41 -108 17z"/>
<path d="M4736 1893 c-22 -87 -103 -357 -123 -410 -4 -10 31 -13 155 -13 l161
0 -50 148 c-27 81 -64 199 -80 262 -17 63 -32 116 -34 118 -1 1 -14 -46 -29
-105z"/>
<path d="M5792 1690 c-57 -14 -108 -55 -136 -111 -24 -49 -26 -62 -26 -183 0
-145 12 -187 66 -238 39 -36 74 -48 140 -48 119 0 191 76 216 226 24 144 -29
291 -122 339 -35 18 -99 25 -138 15z"/>
<path d="M6772 1690 c-76 -18 -146 -96 -157 -175 -4 -23 -5 -94 -3 -158 3
-110 5 -117 33 -158 51 -72 75 -84 169 -84 74 0 86 3 118 27 74 57 114 170
105 295 -13 178 -127 287 -265 253z"/>
<path d="M9415 1698 c-45 -16 -101 -74 -126 -132 -31 -70 -38 -215 -14 -288
40 -122 118 -184 220 -176 131 11 212 141 203 327 -10 200 -136 320 -283 269z"/>
<path d="M10936 1706 c-70 -26 -126 -97 -141 -179 l-7 -37 196 0 196 0 0 38
c0 53 -44 137 -84 162 -44 27 -111 34 -160 16z"/>
</g>
</svg>
