<?xml version="1.0" standalone="no"?>
<!DOCTYPE svg PUBLIC "-//W3C//DTD SVG 20010904//EN"
 "http://www.w3.org/TR/2001/REC-SVG-20010904/DTD/svg10.dtd">
<svg version="1.0" xmlns="http://www.w3.org/2000/svg"
 width="1920.000000pt" height="689.000000pt" viewBox="0 0 1920.000000 689.000000"
 preserveAspectRatio="xMidYMid meet">

<g transform="translate(0.000000,689.000000) scale(0.100000,-0.100000)"
fill="#000000" stroke="none">
<path d="M4795 5740 c-31 -12 -42 -30 -50 -85 -20 -141 -136 -280 -307 -366
-32 -16 -138 -53 -235 -82 -269 -81 -427 -164 -530 -281 -21 -23 -69 -59 -106
-80 -100 -55 -249 -179 -375 -311 -119 -125 -189 -222 -275 -380 -63 -117 -56
-114 -192 -64 -86 32 -96 34 -225 34 -121 0 -143 -3 -208 -27 -189 -69 -339
-205 -435 -395 -88 -173 -98 -418 -26 -616 34 -96 60 -136 154 -247 84 -98
169 -164 290 -225 116 -58 204 -75 400 -75 83 0 156 -4 163 -8 7 -5 31 -60 52
-123 45 -128 114 -267 202 -408 237 -379 619 -651 1078 -766 158 -40 392 -62
481 -45 24 5 88 13 141 20 112 13 176 30 336 89 344 128 671 381 861 669 87
131 182 319 227 447 21 61 42 113 47 116 5 4 91 9 191 12 115 3 199 10 231 20
67 20 200 73 233 94 326 204 475 609 355 963 -39 118 -96 205 -197 305 -73 73
-108 99 -177 133 -188 93 -391 96 -577 7 -41 -19 -76 -35 -78 -35 -1 0 -22 39
-46 88 -87 179 -260 405 -403 526 -144 122 -311 216 -445 251 -49 13 -91 16
-172 12 -60 -2 -108 -3 -108 -1 0 2 16 25 35 50 20 26 43 60 52 77 65 126 71
276 13 307 -23 12 -39 -2 -124 -105 -38 -46 -137 -105 -144 -86 -2 5 11 35 27
68 62 122 78 264 41 369 -38 110 -116 178 -175 154z m-772 -1485 c161 -42 329
-155 442 -299 37 -47 72 -86 78 -86 7 0 28 22 47 47 133 178 275 281 467 340
74 22 106 26 203 26 139 0 236 -23 360 -85 117 -58 237 -178 298 -296 64 -128
69 -122 -107 -122 -122 0 -170 5 -272 26 -97 21 -153 27 -259 28 -150 1 -195
-7 -380 -66 -154 -49 -259 -62 -415 -54 -128 6 -161 13 -352 69 -223 66 -362
71 -588 22 -95 -20 -144 -25 -266 -25 l-150 0 6 23 c3 12 22 54 41 93 150 305
491 449 847 359z m-1379 -473 c34 -16 75 -40 91 -55 66 -55 114 -193 86 -246
-20 -37 -61 -24 -96 31 -52 81 -102 96 -190 54 -59 -27 -117 -88 -136 -142
-22 -63 -17 -161 11 -216 53 -107 147 -169 270 -178 l75 -5 3 -87 3 -88 -118
0 c-137 1 -184 10 -272 53 -220 108 -339 389 -262 619 80 241 324 359 535 260z
m4028 27 c164 -35 293 -160 327 -317 23 -110 6 -251 -44 -357 -52 -110 -189
-230 -304 -265 -54 -17 -246 -32 -284 -22 -16 4 -17 15 -15 91 l3 86 80 6 c92
6 141 27 196 86 52 54 81 117 86 188 9 108 -30 189 -122 248 -87 57 -167 41
-215 -43 -22 -37 -31 -45 -55 -45 -83 0 -58 161 40 259 45 45 86 67 155 82 71
16 88 16 152 3z m-2788 -209 c32 -12 44 -54 25 -85 -8 -12 -95 -99 -194 -194
-160 -153 -183 -172 -209 -169 -55 5 -61 77 -11 136 38 45 33 54 -25 46 -62
-8 -90 11 -90 63 0 80 83 174 180 204 37 11 294 11 324 -1z m1459 -1 c69 -37
57 -59 -143 -260 -143 -144 -186 -181 -207 -181 -57 0 -66 63 -18 126 37 48
33 56 -23 49 -38 -4 -52 -2 -66 13 -28 27 -17 104 21 152 33 41 121 99 162
105 62 9 254 6 274 -4z m665 -165 c20 -14 22 -23 22 -115 0 -169 -32 -284
-112 -402 -113 -167 -257 -269 -459 -328 -45 -13 -83 -28 -86 -34 -2 -6 15
-43 37 -81 52 -89 70 -148 77 -259 7 -121 -8 -192 -64 -305 -61 -121 -176
-242 -297 -310 -262 -147 -647 -183 -945 -89 -183 58 -327 154 -434 289 -97
121 -137 234 -137 385 0 106 19 184 71 293 22 46 39 85 37 86 -2 1 -39 12 -83
24 -230 65 -394 196 -495 396 -57 113 -70 170 -70 311 0 133 5 145 55 145 54
0 86 -48 100 -150 17 -125 85 -250 191 -351 103 -98 201 -129 400 -129 133 0
210 20 300 78 116 75 201 196 255 363 37 112 51 135 100 160 76 38 166 13 206
-57 11 -22 33 -77 47 -124 38 -119 71 -175 151 -255 119 -119 233 -165 411
-165 186 0 311 46 419 155 89 89 137 182 165 318 24 117 32 134 73 152 40 18
38 18 65 -1z"/>
<path d="M4279 2821 c-48 -48 -36 -104 38 -172 167 -155 278 -159 439 -15 92
82 105 138 47 192 -50 47 -135 21 -217 -65 -17 -17 -35 -31 -41 -31 -6 0 -24
14 -41 31 -41 44 -123 89 -162 89 -24 0 -42 -9 -63 -29z"/>
<path d="M4448 2230 c-131 -21 -221 -52 -265 -93 -33 -30 -31 -86 3 -121 32
-32 61 -33 140 -6 123 43 334 43 447 0 72 -28 103 -26 138 9 34 34 36 54 10
97 -48 80 -303 141 -473 114z"/>
<path d="M7980 3085 l0 -1225 275 0 275 0 0 390 0 390 193 0 193 0 268 -386
c148 -212 274 -388 280 -390 6 -2 158 -3 338 -2 l326 3 -308 435 -309 435 82
42 c144 75 231 162 297 298 21 44 46 108 54 141 24 94 38 259 31 359 -34 454
-253 660 -765 720 -95 12 -256 15 -677 15 l-553 0 0 -1225z m1185 740 c99 -21
143 -43 188 -95 48 -56 62 -114 61 -245 -1 -171 -45 -260 -158 -315 -90 -43
-170 -53 -461 -54 l-260 -1 -3 355 c-1 195 0 361 3 369 8 21 517 9 630 -14z"/>
<path d="M10820 3098 c-289 -666 -526 -1217 -528 -1225 -3 -11 49 -13 285 -13
l289 0 114 265 114 265 517 0 517 0 49 -112 c27 -62 78 -182 114 -265 l64
-153 292 0 291 0 -137 318 c-76 174 -314 725 -531 1225 l-393 907 -266 0 -266
0 -525 -1212z m949 127 l150 -350 -155 -3 c-85 -1 -223 -1 -307 0 l-153 3 132
305 c73 168 142 327 154 354 11 27 22 47 24 45 3 -3 72 -162 155 -354z"/>
<path d="M12590 4305 c0 -2 190 -334 423 -737 l422 -733 3 -488 3 -487 269 0
270 0 0 484 0 484 424 738 424 739 -291 3 c-225 2 -294 -1 -303 -10 -6 -7
-127 -212 -269 -456 l-257 -443 -17 28 c-10 15 -129 220 -266 456 l-248 427
-293 0 c-162 0 -294 -2 -294 -5z"/>
<path d="M15091 3893 c92 -230 314 -780 493 -1223 l324 -805 233 0 233 0 492
1220 492 1220 -287 3 c-157 1 -290 1 -296 -2 -6 -2 -149 -351 -320 -775 -170
-424 -312 -771 -315 -771 -3 0 -144 349 -315 775 l-310 775 -296 0 -297 0 169
-417z"/>
</g>
</svg>
