<?xml version="1.0" standalone="no"?>
<!DOCTYPE svg PUBLIC "-//W3C//DTD SVG 20010904//EN"
 "http://www.w3.org/TR/2001/REC-SVG-20010904/DTD/svg10.dtd">
<svg version="1.0" xmlns="http://www.w3.org/2000/svg"
 width="1920.000000pt" height="1918.000000pt" viewBox="0 0 1920.000000 1918.000000"
 preserveAspectRatio="xMidYMid meet">

<g transform="translate(0.000000,1918.000000) scale(0.100000,-0.100000)"
fill="#000000" stroke="none">
<path d="M10405 16651 c-3 -5 -27 -17 -54 -26 -78 -26 -121 -82 -121 -162 -1
-26 -9 -73 -20 -103 -11 -30 -19 -74 -20 -96 0 -23 -15 -79 -34 -125 -90 -224
-216 -399 -417 -577 -198 -176 -332 -261 -620 -396 -31 -14 -61 -26 -68 -26
-6 0 -28 -8 -49 -18 -20 -11 -102 -38 -182 -61 -80 -23 -165 -47 -190 -55 -86
-25 -255 -73 -290 -81 -14 -4 -34 -10 -45 -15 -27 -12 -108 -37 -176 -54 -31
-8 -81 -26 -110 -39 -30 -14 -72 -30 -94 -37 -22 -7 -44 -16 -50 -20 -5 -4
-39 -19 -75 -33 -70 -28 -231 -108 -320 -159 -91 -52 -297 -190 -310 -208 -3
-3 -57 -49 -120 -102 -64 -53 -145 -131 -180 -175 -75 -92 -118 -127 -221
-182 -176 -92 -291 -164 -384 -237 -22 -18 -61 -47 -87 -66 -75 -53 -157 -118
-233 -183 -38 -34 -90 -76 -115 -95 -68 -51 -525 -507 -575 -573 -25 -32 -73
-91 -109 -130 -35 -40 -88 -103 -118 -142 -88 -116 -338 -499 -338 -519 0 -4
-15 -31 -34 -60 -19 -29 -67 -116 -106 -192 -117 -225 -155 -289 -184 -313
-20 -17 -50 -10 -151 38 -155 74 -492 181 -571 181 -17 0 -51 7 -75 16 -62 22
-566 23 -619 1 -19 -8 -60 -18 -90 -21 -164 -21 -482 -147 -674 -268 -171
-108 -223 -146 -325 -239 -236 -215 -424 -464 -568 -752 -114 -227 -205 -516
-216 -682 -3 -44 -13 -98 -22 -119 -14 -34 -16 -73 -13 -285 2 -182 6 -252 16
-269 8 -13 18 -70 23 -125 13 -135 48 -280 103 -420 25 -63 53 -139 62 -168
34 -103 157 -308 254 -422 20 -23 54 -67 77 -97 22 -30 76 -94 119 -142 44
-47 103 -114 132 -147 77 -88 228 -210 402 -324 182 -119 474 -271 600 -312
47 -15 102 -33 123 -41 20 -8 55 -14 78 -14 22 0 56 -7 76 -15 19 -8 54 -15
77 -15 22 0 64 -8 91 -17 44 -15 113 -17 542 -21 l492 -3 24 -23 c27 -25 92
-187 103 -255 3 -24 19 -73 35 -109 16 -35 29 -68 29 -74 0 -5 15 -46 34 -91
62 -153 78 -192 105 -267 28 -74 68 -154 114 -228 13 -20 55 -98 92 -172 38
-74 81 -153 95 -175 15 -22 51 -83 80 -135 61 -107 259 -409 320 -485 21 -27
68 -84 104 -125 36 -41 79 -95 95 -120 16 -25 38 -54 48 -65 10 -11 29 -36 43
-55 32 -47 225 -245 273 -281 21 -15 75 -62 120 -105 45 -42 93 -84 107 -92
14 -9 64 -49 111 -88 145 -122 321 -249 549 -397 169 -109 686 -369 895 -451
151 -58 490 -172 585 -195 25 -6 68 -18 95 -27 28 -8 82 -22 120 -29 92 -18
152 -34 193 -51 18 -8 67 -14 111 -14 48 0 95 -6 122 -16 32 -12 85 -17 189
-19 131 -3 150 -5 200 -28 53 -24 62 -25 280 -26 201 -2 234 1 305 20 104 27
172 37 270 38 44 1 102 8 129 16 27 8 82 15 121 15 42 0 88 6 108 15 20 8 54
15 76 15 23 0 58 7 78 15 21 8 61 18 88 24 28 5 64 14 80 19 17 6 57 18 90 27
33 9 87 26 120 37 33 11 87 30 120 40 33 11 96 34 140 50 44 17 118 44 165 60
47 16 99 37 115 47 17 9 54 25 84 35 64 20 358 166 416 206 22 15 96 55 164
90 68 35 138 75 155 90 17 15 60 45 96 65 36 21 88 56 115 77 28 22 95 71 150
109 140 97 258 191 342 272 39 38 100 91 136 118 35 26 89 72 118 102 135 135
267 275 294 312 17 23 73 87 125 143 65 70 136 164 222 295 70 106 144 215
164 242 20 28 47 71 60 97 13 25 35 63 49 84 14 21 28 49 32 63 3 14 16 40 29
56 25 35 88 152 186 350 38 77 83 166 99 198 16 31 29 65 29 74 0 9 10 36 21
60 24 49 66 162 78 208 4 17 22 62 38 100 17 39 34 86 38 105 16 81 48 166 70
186 22 20 34 21 481 27 351 5 470 9 504 20 25 8 78 15 119 16 41 1 90 8 110
16 20 7 55 16 77 19 23 3 54 13 70 21 16 8 36 15 45 15 9 0 47 13 85 29 38 16
116 47 174 69 58 22 130 50 160 62 30 13 78 32 105 43 28 10 72 36 99 56 28
20 73 50 101 66 60 35 252 186 338 265 55 51 139 148 260 303 27 34 63 79 80
101 50 61 113 169 186 321 114 236 140 297 165 390 22 83 33 132 71 320 8 39
17 113 21 165 3 52 12 110 20 129 19 46 19 252 0 289 -8 16 -17 75 -21 137 -3
61 -12 137 -20 170 -7 33 -21 94 -30 135 -29 127 -121 385 -173 485 -51 98
-156 271 -201 330 -25 33 -71 94 -102 135 -74 97 -313 330 -409 398 -233 166
-394 251 -600 317 -80 25 -158 51 -175 56 -16 5 -61 12 -100 16 -38 3 -89 11
-113 19 -63 21 -479 20 -529 -1 -19 -8 -56 -15 -82 -15 -25 0 -62 -5 -81 -10
-19 -6 -62 -17 -95 -25 -106 -24 -199 -61 -351 -138 -82 -41 -164 -83 -181
-93 -45 -26 -60 -14 -108 87 -91 190 -228 455 -272 522 -128 199 -247 374
-328 482 -162 215 -189 249 -251 315 -33 36 -81 92 -106 125 -49 64 -232 245
-313 310 -28 21 -75 62 -105 90 -47 43 -194 157 -267 205 -306 206 -313 211
-563 336 -226 113 -419 184 -585 215 -33 6 -78 15 -100 20 -69 14 -468 11
-517 -5 -98 -32 -178 -27 -178 10 0 8 28 46 63 83 161 177 273 388 352 666 22
77 28 436 8 456 -7 7 -13 20 -13 29 0 22 -57 88 -92 106 -40 21 -90 13 -134
-21 -19 -15 -71 -81 -116 -148 -56 -85 -111 -151 -180 -219 -101 -99 -151
-132 -302 -198 -124 -55 -140 -29 -63 102 57 96 128 249 153 328 43 132 64
213 74 285 7 44 16 103 20 130 12 71 12 164 0 205 -6 19 -15 69 -21 110 -25
178 -125 397 -235 518 -60 66 -153 132 -186 132 -7 0 -31 9 -53 20 -43 22 -61
25 -70 11z m1515 -4521 c603 -37 1141 -267 1511 -647 167 -171 287 -326 391
-508 69 -121 166 -370 155 -399 -6 -14 -54 -16 -484 -16 l-478 1 -170 35
c-433 89 -569 112 -775 130 -432 38 -872 -28 -1375 -206 -61 -22 -226 -72
-320 -98 -143 -39 -149 -40 -431 -72 -284 -32 -901 6 -1134 69 -19 5 -62 17
-95 25 -54 15 -210 64 -370 116 -222 72 -488 130 -705 155 -411 45 -702 20
-1280 -111 -183 -41 -215 -43 -665 -44 -242 -1 -448 -1 -457 0 -37 1 -32 46
20 187 91 245 289 538 514 759 288 284 615 463 1028 562 168 41 309 57 505 57
197 0 234 -4 465 -46 460 -84 829 -261 1200 -575 157 -133 280 -271 477 -536
56 -75 107 -139 112 -142 15 -10 42 11 81 62 283 378 552 650 818 831 204 138
418 235 696 316 326 95 478 113 766 95z m-8485 -1465 c115 -25 137 -31 219
-64 149 -60 250 -125 359 -230 169 -162 267 -381 267 -593 0 -99 -13 -139 -56
-179 -39 -36 -65 -42 -114 -29 -39 10 -130 81 -130 101 0 15 -73 133 -109 176
-19 23 -61 56 -94 74 -235 125 -634 -69 -792 -385 -114 -230 -110 -539 10
-776 95 -189 296 -374 490 -452 139 -56 213 -70 388 -73 93 -2 170 -5 173 -7
8 -9 5 -541 -4 -550 -12 -12 -558 -10 -677 2 -193 20 -425 99 -602 206 -197
119 -405 322 -527 512 -48 76 -166 314 -166 336 0 8 -9 35 -19 62 -18 46 -44
145 -71 274 -16 76 -7 411 13 514 39 193 135 419 243 573 64 90 229 252 318
312 144 97 282 155 441 185 44 8 89 17 100 19 52 11 275 6 340 -8z m12685 -1
c47 -9 103 -19 125 -24 92 -17 253 -87 363 -157 136 -87 284 -227 377 -358 52
-73 137 -240 160 -315 46 -150 57 -223 62 -435 4 -185 2 -226 -17 -340 -32
-193 -65 -304 -139 -459 -67 -142 -131 -236 -232 -341 -47 -49 -106 -110 -130
-135 -115 -120 -289 -243 -434 -310 -88 -40 -205 -76 -325 -99 -138 -27 -720
-42 -761 -21 -18 10 -19 24 -19 275 0 200 3 266 13 272 6 4 91 11 187 14 211
8 312 30 445 96 101 51 149 86 236 175 188 189 279 404 279 656 0 245 -69 413
-239 583 -89 89 -201 158 -316 195 -67 22 -92 25 -156 20 -87 -6 -153 -26
-207 -62 -49 -33 -70 -61 -127 -169 -54 -102 -85 -139 -133 -162 -48 -23 -100
-5 -151 53 -46 53 -57 106 -48 233 17 243 228 555 465 688 91 51 194 93 260
105 31 5 89 16 127 23 99 18 235 18 335 -1z m-4184 -625 c107 -18 151 -38 188
-81 93 -109 62 -225 -99 -368 -33 -29 -80 -71 -105 -92 -97 -86 -432 -423
-606 -609 -199 -213 -236 -246 -298 -264 -50 -15 -105 1 -149 43 -42 40 -57
75 -57 134 1 70 22 115 114 237 104 139 101 166 -14 137 -92 -24 -196 -21
-244 7 -142 81 -113 345 59 538 41 46 150 139 205 175 163 107 227 123 550
139 342 16 386 17 456 4z m-4386 -34 c94 -52 126 -126 96 -221 -19 -61 -68
-114 -350 -380 -94 -87 -269 -256 -390 -374 -398 -388 -430 -418 -478 -430
-133 -36 -252 118 -203 263 19 56 81 149 148 223 80 88 56 129 -55 94 -74 -23
-181 -26 -229 -6 -69 29 -119 112 -119 196 0 54 36 184 66 240 114 210 375
395 594 420 36 4 245 7 465 6 l400 -1 55 -30z m-2246 -516 c59 -29 117 -98
145 -174 12 -30 32 -126 46 -213 48 -296 66 -355 166 -568 86 -184 209 -353
382 -527 176 -178 194 -192 379 -287 171 -88 324 -125 658 -159 286 -30 623
-1 835 71 101 34 295 136 400 210 117 83 296 258 383 375 55 74 126 188 194
313 38 70 114 270 162 430 74 245 106 311 190 387 99 90 210 133 339 133 264
-2 420 -149 522 -495 65 -221 124 -390 164 -469 141 -275 382 -535 667 -718
54 -35 224 -119 294 -146 102 -39 225 -64 425 -87 156 -18 230 -19 395 -5 436
37 739 144 995 354 202 166 346 348 467 591 100 203 116 254 168 535 11 63 26
142 32 175 24 130 95 238 187 285 45 22 144 36 186 26 32 -8 83 -58 91 -90 8
-35 -3 -650 -14 -731 -39 -285 -154 -580 -321 -820 -222 -319 -416 -512 -716
-711 -191 -126 -437 -231 -750 -319 -172 -49 -231 -68 -237 -78 -16 -25 -7
-56 30 -103 69 -88 199 -319 243 -429 22 -56 50 -160 59 -215 5 -30 14 -80 21
-110 6 -30 13 -156 16 -280 3 -182 1 -242 -12 -310 -9 -47 -20 -110 -25 -140
-17 -116 -57 -226 -142 -395 -269 -538 -697 -917 -1318 -1167 -138 -55 -334
-119 -455 -147 -27 -7 -66 -16 -85 -21 -19 -5 -64 -14 -100 -20 -36 -6 -85
-16 -110 -20 -118 -23 -160 -30 -225 -35 -38 -3 -113 -10 -165 -15 -213 -21
-666 -1 -910 39 -30 5 -84 14 -120 20 -100 15 -330 77 -455 121 -44 16 -114
40 -155 55 -98 35 -319 143 -429 209 -350 212 -657 513 -855 836 -92 151 -170
328 -201 455 -9 39 -20 79 -25 90 -5 11 -11 38 -14 60 -3 22 -11 78 -18 125
-16 103 -16 388 0 485 26 167 74 359 103 417 11 21 19 41 19 47 0 25 112 252
176 357 63 102 59 116 -36 129 -55 8 -277 67 -315 84 -11 5 -38 15 -60 22
-178 54 -499 222 -675 353 -403 299 -776 876 -862 1331 -20 110 -26 223 -27
503 -1 324 1 340 60 385 55 41 145 40 233 -4z"/>
<path d="M8893 7670 c-46 -11 -117 -55 -149 -92 -120 -143 -76 -309 137 -513
162 -156 359 -291 495 -340 71 -25 93 -28 209 -29 140 -1 183 8 295 64 196 98
516 379 583 511 55 109 31 218 -71 322 -97 99 -234 113 -382 37 -79 -40 -257
-179 -351 -274 -31 -31 -64 -56 -73 -56 -9 0 -57 38 -107 86 -116 109 -193
165 -302 220 -129 65 -207 83 -284 64z"/>
<path d="M9240 5746 c-244 -38 -471 -103 -622 -177 -177 -86 -228 -148 -228
-273 1 -101 61 -200 152 -247 63 -32 165 -26 290 17 304 105 469 129 818 121
301 -8 428 -25 574 -77 45 -16 121 -43 171 -60 77 -28 98 -32 152 -27 74 7
110 24 162 76 154 154 83 351 -172 474 -83 41 -277 109 -384 137 -168 43 -259
53 -513 55 -224 3 -272 1 -400 -19z"/>
</g>
</svg>
